# Blender v2.93.1 OBJ File: ''
# www.blender.org
v -1.000000 -1.000000 0.000000
v -0.500000 -1.000000 -0.866025
v 0.500000 -1.000000 -0.866025
v 1.000000 -1.000000 0.000000
v 0.500000 -1.000000 0.866025
v -0.500000 -1.000000 0.866025
v 0.000000 1.000000 0.000000
vn -0.7947 0.3974 -0.4588
vn 0.0000 0.3974 -0.9177
vn 0.7947 0.3974 -0.4588
vn 0.7947 0.3974 0.4588
vn 0.0000 -1.0000 -0.0000
vn 0.0000 0.3974 0.9177
vn -0.7947 0.3974 0.4588
s off
f 1//1 7//1 2//1
f 2//2 7//2 3//2
f 3//3 7//3 4//3
f 4//4 7//4 5//4
f 1//5 2//5 3//5 4//5 5//5 6//5
f 5//6 7//6 6//6
f 6//7 7//7 1//7
